<?xml version="1.0" encoding="utf-8"?>
<!-- Generator: Adobe Illustrator 22.1.0, SVG Export Plug-In . SVG Version: 6.00 Build 0)  -->
<svg version="1.1" xmlns="http://www.w3.org/2000/svg" xmlns:xlink="http://www.w3.org/1999/xlink" x="0px" y="0px"
	 viewBox="0 0 500 500" style="enable-background:new 0 0 500 500;" xml:space="preserve">
<style type="text/css">
	.st0{fill:#F2F2F2;}
	.st1{fill:#FFFFFF;}
	.st2{fill:#1976D2;}
	.st3{fill:#0060AF;}
	.st4{fill:#C3002F;}
	.st5{fill:#DD0031;}
	.st6{fill:none;stroke:#C3002F;stroke-width:12.8257;stroke-miterlimit:10;}
	.st7{fill:none;stroke:#6CC4FF;stroke-width:4.5346;stroke-miterlimit:10;}
	.st8{opacity:0.3;fill:#FFFFFF;}
	.st9{opacity:0.5;}
	.st10{fill:#FFCA28;}
	.st11{fill:#FFCDD2;}
	.st12{fill:#EF9A9A;}
	.st13{fill:#FFD600;}
	.st14{fill:#6CC4FF;}
	.st15{fill:none;stroke:#1976D2;stroke-width:12.826;stroke-miterlimit:10;}
	.st16{fill:none;stroke:#E74D6F;stroke-width:4.535;stroke-miterlimit:10;}
	.st17{fill:#E74D6F;}
	.st18{fill:#EE8098;}
	.st19{fill:#FFE6E8;}
</style>
<g id="Layer_1">
	<g>
		<circle class="st0" cx="250" cy="250" r="232"/>
		<path class="st1" d="M325.6,349.2l-8.3,18.7l0,0h3.1l0,0l1.7-4.2h7.1l1.7,4.2l0,0h3.1l0,0L325.6,349.2L325.6,349.2L325.6,349.2
			L325.6,349.2L325.6,349.2z M328.1,361.1h-4.9l2.4-5.9L328.1,361.1z"/>
		<g>
			<g>
				<path class="st2" d="M147.2,400.1l-31.5-31.5c-4.9-4.9-1.4-13.3,5.5-13.3h31.5c4.3,0,7.8,3.5,7.8,7.8v31.5
					C160.5,401.6,152.1,405.1,147.2,400.1z"/>
				<path class="st3" d="M115.8,357.4c-3,2.8-3.6,7.9-0.2,11.3l31.5,31.5c3.4,3.4,8.4,2.8,11.3-0.2L115.8,357.4z"/>
			</g>
			<path class="st4" d="M330.6,410H169.4c-5,0-9-4-9-9v-44.6c0-5,4-9,9-9h161.1c5,0,9,4,9,9V401C339.6,406,335.5,410,330.6,410z"/>
			<path class="st5" d="M322.2,376.4H179.6c-5,0-9-4-9-9v-38.2c0-5,4-9,9-9h142.5c5,0,9,4,9,9v38.2
				C331.2,372.4,327.1,376.4,322.2,376.4z"/>
			<g>
				<path class="st2" d="M159.5,231.3h-18.6c-4.9,0-8.8-4-8.8-8.8v-18.6c0-4.9,4-8.8,8.8-8.8h18.6c4.9,0,8.8,4,8.8,8.8v18.6
					C168.4,227.4,164.4,231.3,159.5,231.3z"/>
				<path class="st3" d="M160.4,195.1h-1.1v19.2c0,4.4-3.6,8-8,8h-19.2v1.1c0,4.4,3.6,8,8,8h20.3c4.4,0,8-3.6,8-8v-20.3
					C168.4,198.6,164.8,195.1,160.4,195.1z"/>
			</g>
			<g>
				<path class="st2" d="M359.1,231.3h-18.6c-4.9,0-8.8-4-8.8-8.8v-18.6c0-4.9,4-8.8,8.8-8.8h18.6c4.9,0,8.8,4,8.8,8.8v18.6
					C367.9,227.4,363.9,231.3,359.1,231.3z"/>
				<path class="st3" d="M348.7,222.3c-4.4,0-8-3.6-8-8v-19.2h-1.1c-4.4,0-8,3.6-8,8v20.3c0,4.4,3.6,8,8,8h20.3c4.4,0,8-3.6,8-8
					v-1.1H348.7z"/>
			</g>
			<g>
				<g>
					<path class="st6" d="M188.4,139.4c0,11.8,0,21.3,0,21.3S188.4,151.2,188.4,139.4c0-11.8,0-21.3,0-21.3S188.4,127.7,188.4,139.4
						z"/>
					<circle class="st7" cx="188.9" cy="105" r="15"/>
				</g>
				<g>
					<path class="st6" d="M310.7,139.4c0,11.8,0,21.3,0,21.3S310.7,151.2,310.7,139.4c0-11.8,0-21.3,0-21.3S310.7,127.7,310.7,139.4
						z"/>
					<circle class="st7" cx="311.1" cy="105" r="15"/>
				</g>
			</g>
			<g>
				<path class="st5" d="M242.4,131.5l-86.6,30.3c-10.2,3.6-16.5,13.7-15.3,24.4l13,117.6c0.8,7.5,5.2,14.1,11.8,17.7l73.5,40.6
					c7,3.9,15.5,3.8,22.4,0l72.8-40.6c6.5-3.6,10.8-10.1,11.7-17.5l13.7-117.7c1.3-10.7-5.1-20.9-15.3-24.5l-86.4-30.2
					C252.7,129.8,247.4,129.8,242.4,131.5z"/>
				<path class="st4" d="M345.7,285.8c-0.9,7.4-5.2,13.9-11.7,17.5l-72.8,40.6c-7,3.9-15.5,3.9-22.4,0l-73.5-40.6
					c-6.6-3.6-11-10.2-11.8-17.7l-12-109c-1,3-1.3,6.2-0.9,9.5l13,117.6c0.8,7.5,5.2,14.1,11.8,17.7l73.5,40.6
					c7,3.9,15.5,3.8,22.4,0l72.8-40.6c6.5-3.6,10.8-10.1,11.7-17.5l13.7-117.7c0.4-3.4,0-6.7-1-9.8L345.7,285.8z"/>
				<path class="st8" d="M141.5,194.7c2.2-6.8,7.4-12.4,14.4-14.8l86.6-30.3c4.9-1.7,10.3-1.7,15.3,0l86.4,30.2
					c7,2.4,12.2,8,14.4,14.7l1-8.3c1.3-10.7-5.1-20.9-15.3-24.5l-86.4-30.2c-4.9-1.7-10.3-1.7-15.3,0l-86.6,30.3
					c-10.2,3.6-16.5,13.7-15.3,24.4L141.5,194.7z"/>
			</g>
			<g>
				<g>
					<g class="st9">
						<circle class="st1" cx="196.9" cy="231.3" r="38.1"/>
					</g>
					<g>
						<circle class="st1" cx="196.9" cy="231.3" r="20.9"/>
					</g>
					<g>
						<circle class="st10" cx="197.3" cy="230.9" r="13.2"/>
					</g>
					<g>
						<circle class="st2" cx="197.3" cy="230.9" r="9.5"/>
					</g>
					<circle class="st1" cx="206" cy="223.2" r="6.3"/>
				</g>
				<g>
					<g class="st9">
						<circle class="st1" cx="303.1" cy="231.3" r="38.1"/>
					</g>
					<g>
						<circle class="st1" cx="303.1" cy="231.3" r="20.9"/>
					</g>
					<g>
						<circle class="st10" cx="303.6" cy="230.9" r="13.2"/>
					</g>
					<g>
						<circle class="st2" cx="303.6" cy="230.9" r="9.5"/>
					</g>
					<circle class="st1" cx="312.2" cy="223.2" r="6.3"/>
				</g>
			</g>
			<g>
				<path class="st1" d="M275.8,270.6c0,14.2-11.5,25.8-25.8,25.8c-14.2,0-25.8-11.5-25.8-25.8C224.2,270.1,275.8,270.1,275.8,270.6
					z"/>
				<g class="st9">
					<path class="st11" d="M224.5,274.3c1.8,12.5,12.5,22.2,25.5,22.2c13,0,23.7-9.6,25.5-22.2C271.6,273.8,228.4,273.8,224.5,274.3
						z"/>
				</g>
				<path class="st12" d="M268.1,289c-2.3-3.2-6.4-5.4-11.1-5.4c-7.2,0-13,5-13,11.1c0,0.3,0,0.6,0.1,1c1.9,0.5,3.9,0.7,5.9,0.7
					C257,296.4,263.4,293.6,268.1,289z"/>
			</g>
			<g>
				<path class="st2" d="M352.8,400.1l31.5-31.5c4.9-4.9,1.4-13.3-5.5-13.3h-31.5c-4.3,0-7.8,3.5-7.8,7.8v31.5
					C339.5,401.6,347.9,405.1,352.8,400.1z"/>
				<path class="st3" d="M384.2,357.4c3,2.8,3.6,7.9,0.2,11.3l-31.5,31.5c-3.4,3.4-8.4,2.8-11.3-0.2L384.2,357.4z"/>
			</g>
		</g>
		<g>
			<g>
				<g>
					<path class="st4" d="M96.9,120.2c0.9,2.6,1.4,5.3,1.7,7.9c0.3,2.6,0.5,5.3,0.5,7.9c0,2.6-0.1,5.3-0.5,7.9
						c-0.3,2.6-0.8,5.3-1.7,7.9c-0.9-2.6-1.4-5.3-1.7-7.9c-0.3-2.6-0.5-5.3-0.5-7.9c0-2.6,0.2-5.3,0.5-7.9
						C95.5,125.5,96,122.9,96.9,120.2z"/>
				</g>
				<g>
					<path class="st4" d="M81.1,136c2.6-0.9,5.3-1.4,7.9-1.7c2.6-0.3,5.3-0.5,7.9-0.5c2.6,0,5.3,0.1,7.9,0.5
						c2.6,0.3,5.3,0.8,7.9,1.7c-2.6,0.9-5.3,1.4-7.9,1.7c-2.6,0.3-5.3,0.5-7.9,0.5c-2.6,0-5.3-0.2-7.9-0.5
						C86.4,137.4,83.7,136.9,81.1,136z"/>
				</g>
			</g>
			<g>
				<g>
					<path class="st4" d="M212.6,422.2c0.4,1.2,0.6,2.5,0.8,3.7c0.2,1.2,0.2,2.5,0.2,3.7c0,1.2-0.1,2.5-0.2,3.7
						c-0.2,1.2-0.4,2.5-0.8,3.7c-0.4-1.2-0.6-2.5-0.8-3.7c-0.2-1.2-0.2-2.5-0.2-3.7c0-1.2,0.1-2.5,0.2-3.7
						C211.9,424.7,212.1,423.5,212.6,422.2z"/>
				</g>
				<g>
					<path class="st4" d="M205.1,429.7c1.2-0.4,2.5-0.6,3.7-0.8c1.2-0.2,2.5-0.2,3.7-0.2c1.2,0,2.5,0.1,3.7,0.2
						c1.2,0.2,2.5,0.4,3.7,0.8c-1.2,0.4-2.5,0.6-3.7,0.8c-1.2,0.2-2.5,0.2-3.7,0.2c-1.2,0-2.5-0.1-3.7-0.2
						C207.6,430.3,206.3,430.1,205.1,429.7z"/>
				</g>
			</g>
			<g>
				<g>
					<path class="st13" d="M426.5,166.9c0.6,1.7,0.9,3.3,1.1,5c0.2,1.7,0.3,3.3,0.3,5c0,1.7-0.1,3.3-0.3,5c-0.2,1.7-0.5,3.3-1.1,5
						c-0.6-1.7-0.9-3.3-1.1-5c-0.2-1.7-0.3-3.3-0.3-5c0-1.7,0.1-3.3,0.3-5C425.6,170.2,425.9,168.6,426.5,166.9z"/>
				</g>
				<g>
					<path class="st13" d="M416.6,176.8c1.7-0.6,3.3-0.9,5-1.1c1.7-0.2,3.3-0.3,5-0.3c1.7,0,3.3,0.1,5,0.3c1.7,0.2,3.3,0.5,5,1.1
						c-1.7,0.6-3.3,0.9-5,1.1c-1.7,0.2-3.3,0.3-5,0.3c-1.7,0-3.3-0.1-5-0.3C419.9,177.7,418.2,177.4,416.6,176.8z"/>
				</g>
			</g>
			<g>
				<g>
					<path class="st14" d="M389.1,316.4c0.3,0.8,0.4,1.6,0.5,2.4c0.1,0.8,0.1,1.6,0.1,2.4c0,0.8,0,1.6-0.1,2.4
						c-0.1,0.8-0.2,1.6-0.5,2.4c-0.3-0.8-0.4-1.6-0.5-2.4c-0.1-0.8-0.1-1.6-0.1-2.4c0-0.8,0-1.6,0.1-2.4
						C388.6,318,388.8,317.2,389.1,316.4z"/>
				</g>
				<g>
					<path class="st14" d="M384.3,321.2c0.8-0.3,1.6-0.4,2.4-0.5c0.8-0.1,1.6-0.1,2.4-0.1c0.8,0,1.6,0,2.4,0.1
						c0.8,0.1,1.6,0.2,2.4,0.5c-0.8,0.3-1.6,0.4-2.4,0.5c-0.8,0.1-1.6,0.1-2.4,0.1c-0.8,0-1.6,0-2.4-0.1
						C385.9,321.6,385.1,321.5,384.3,321.2z"/>
				</g>
			</g>
			<g>
				<g>
					<path class="st1" d="M449.6,217.4c0.4,1.1,0.4,2.2,0.5,3.4c0,1.1-0.1,2.2-0.5,3.4c-0.4-1.1-0.5-2.2-0.5-3.4
						C449.2,219.7,449.3,218.6,449.6,217.4z"/>
				</g>
				<g>
					<path class="st1" d="M446.3,220.8c1.1-0.4,2.2-0.4,3.4-0.5c1.1,0,2.2,0.1,3.4,0.5c-1.1,0.4-2.2,0.5-3.4,0.5
						C448.5,221.2,447.4,221.2,446.3,220.8z"/>
				</g>
			</g>
			<g>
				<g>
					<path class="st1" d="M58.6,241.4c0.4,1.1,0.4,2.2,0.5,3.4c0,1.1-0.1,2.2-0.5,3.4c-0.4-1.1-0.5-2.2-0.5-3.4
						C58.2,243.7,58.3,242.6,58.6,241.4z"/>
				</g>
				<g>
					<path class="st1" d="M55.3,244.8c1.1-0.4,2.2-0.4,3.4-0.5c1.1,0,2.2,0.1,3.4,0.5c-1.1,0.4-2.2,0.5-3.4,0.5
						C57.5,245.2,56.4,245.2,55.3,244.8z"/>
				</g>
			</g>
			<g>
				<g>
					<path class="st1" d="M338.6,92.4c0.4,1.1,0.4,2.2,0.5,3.4c0,1.1-0.1,2.2-0.5,3.4c-0.4-1.1-0.5-2.2-0.5-3.4
						C338.2,94.7,338.3,93.6,338.6,92.4z"/>
				</g>
				<g>
					<path class="st1" d="M335.3,95.8c1.1-0.4,2.2-0.4,3.4-0.5c1.1,0,2.2,0.1,3.4,0.5c-1.1,0.4-2.2,0.5-3.4,0.5
						C337.5,96.2,336.4,96.2,335.3,95.8z"/>
				</g>
			</g>
			<g>
				<g>
					<path class="st1" d="M224.6,40.4c0.4,1.1,0.4,2.2,0.5,3.4c0,1.1-0.1,2.2-0.5,3.4c-0.4-1.1-0.5-2.2-0.5-3.4
						C224.2,42.7,224.3,41.6,224.6,40.4z"/>
				</g>
				<g>
					<path class="st1" d="M221.3,43.8c1.1-0.4,2.2-0.4,3.4-0.5c1.1,0,2.2,0.1,3.4,0.5c-1.1,0.4-2.2,0.5-3.4,0.5
						C223.5,44.2,222.4,44.2,221.3,43.8z"/>
				</g>
			</g>
			<g>
				<g>
					<path class="st1" d="M236.6,453.4c0.4,1.1,0.4,2.2,0.5,3.4c0,1.1-0.1,2.2-0.5,3.4c-0.4-1.1-0.5-2.2-0.5-3.4
						C236.2,455.7,236.3,454.6,236.6,453.4z"/>
				</g>
				<g>
					<path class="st1" d="M233.3,456.8c1.1-0.4,2.2-0.4,3.4-0.5c1.1,0,2.2,0.1,3.4,0.5c-1.1,0.4-2.2,0.5-3.4,0.5
						C235.5,457.2,234.4,457.2,233.3,456.8z"/>
				</g>
			</g>
			<g>
				<g>
					<path class="st1" d="M147.6,426.4c0.4,1.1,0.4,2.2,0.5,3.4c0,1.1-0.1,2.2-0.5,3.4c-0.4-1.1-0.5-2.2-0.5-3.4
						C147.2,428.7,147.3,427.6,147.6,426.4z"/>
				</g>
				<g>
					<path class="st1" d="M144.3,429.8c1.1-0.4,2.2-0.4,3.4-0.5c1.1,0,2.2,0.1,3.4,0.5c-1.1,0.4-2.2,0.5-3.4,0.5
						C146.5,430.2,145.4,430.2,144.3,429.8z"/>
				</g>
			</g>
			<g>
				<g>
					<path class="st1" d="M289.6,447.4c0.4,1.1,0.4,2.2,0.5,3.4c0,1.1-0.1,2.2-0.5,3.4c-0.4-1.1-0.5-2.2-0.5-3.4
						C289.2,449.7,289.3,448.6,289.6,447.4z"/>
				</g>
				<g>
					<path class="st1" d="M286.3,450.8c1.1-0.4,2.2-0.4,3.4-0.5c1.1,0,2.2,0.1,3.4,0.5c-1.1,0.4-2.2,0.5-3.4,0.5
						C288.5,451.2,287.4,451.2,286.3,450.8z"/>
				</g>
			</g>
			<g>
				<g>
					<path class="st14" d="M113.8,284.2c0.4,1,0.5,2.1,0.7,3.1c0.1,1,0.2,2.1,0.2,3.1c0,1-0.1,2.1-0.2,3.1c-0.1,1-0.3,2.1-0.7,3.1
						c-0.4-1-0.5-2.1-0.7-3.1c-0.1-1-0.2-2.1-0.2-3.1c0-1,0.1-2.1,0.2-3.1C113.3,286.3,113.4,285.3,113.8,284.2z"/>
				</g>
				<g>
					<path class="st14" d="M107.5,290.5c1-0.4,2.1-0.5,3.1-0.7c1-0.1,2.1-0.2,3.1-0.2c1,0,2.1,0.1,3.1,0.2c1,0.1,2.1,0.3,3.1,0.7
						c-1,0.4-2.1,0.5-3.1,0.7c-1,0.1-2.1,0.2-3.1,0.2c-1,0-2.1-0.1-3.1-0.2C109.6,291,108.6,290.8,107.5,290.5z"/>
				</g>
			</g>
			<g>
				<g>
					<path class="st13" d="M265.8,71.3c0.6,1.7,0.9,3.3,1.1,5c0.2,1.7,0.3,3.3,0.3,5c0,1.7-0.1,3.3-0.3,5c-0.2,1.7-0.5,3.3-1.1,5
						c-0.6-1.7-0.9-3.3-1.1-5c-0.2-1.7-0.3-3.3-0.3-5c0-1.7,0.1-3.3,0.3-5C265,74.6,265.3,73,265.8,71.3z"/>
				</g>
				<g>
					<path class="st13" d="M255.9,81.3c1.7-0.6,3.3-0.9,5-1.1c1.7-0.2,3.3-0.3,5-0.3c1.7,0,3.3,0.1,5,0.3c1.7,0.2,3.3,0.5,5,1.1
						c-1.7,0.6-3.3,0.9-5,1.1c-1.7,0.2-3.3,0.3-5,0.3c-1.7,0-3.3-0.1-5-0.3C259.2,82.1,257.6,81.8,255.9,81.3z"/>
				</g>
			</g>
			<g>
				<g>
					<path class="st13" d="M104.2,389.9c0.6,1.7,0.9,3.3,1.1,5c0.2,1.7,0.3,3.3,0.3,5c0,1.7-0.1,3.3-0.3,5c-0.2,1.7-0.5,3.3-1.1,5
						c-0.6-1.7-0.9-3.3-1.1-5c-0.2-1.7-0.3-3.3-0.3-5c0-1.7,0.1-3.3,0.3-5C103.3,393.2,103.6,391.5,104.2,389.9z"/>
				</g>
				<g>
					<path class="st13" d="M94.3,399.8c1.7-0.6,3.3-0.9,5-1.1c1.7-0.2,3.3-0.3,5-0.3c1.7,0,3.3,0.1,5,0.3c1.7,0.2,3.3,0.5,5,1.1
						c-1.7,0.6-3.3,0.9-5,1.1c-1.7,0.2-3.3,0.3-5,0.3c-1.7,0-3.3-0.1-5-0.3C97.6,400.6,95.9,400.3,94.3,399.8z"/>
				</g>
			</g>
			<g>
				<g>
					<path class="st13" d="M74.2,202.9c0.6,1.7,0.9,3.3,1.1,5c0.2,1.7,0.3,3.3,0.3,5c0,1.7-0.1,3.3-0.3,5c-0.2,1.7-0.5,3.3-1.1,5
						c-0.6-1.7-0.9-3.3-1.1-5c-0.2-1.7-0.3-3.3-0.3-5c0-1.7,0.1-3.3,0.3-5C73.3,206.2,73.6,204.5,74.2,202.9z"/>
				</g>
				<g>
					<path class="st13" d="M64.3,212.8c1.7-0.6,3.3-0.9,5-1.1c1.7-0.2,3.3-0.3,5-0.3c1.7,0,3.3,0.1,5,0.3c1.7,0.2,3.3,0.5,5,1.1
						c-1.7,0.6-3.3,0.9-5,1.1c-1.7,0.2-3.3,0.3-5,0.3c-1.7,0-3.3-0.1-5-0.3C67.6,213.6,65.9,213.3,64.3,212.8z"/>
				</g>
			</g>
			<g>
				<g>
					<path class="st4" d="M442.4,310.2c0.9,2.6,1.4,5.3,1.7,7.9c0.3,2.6,0.5,5.3,0.5,7.9c0,2.6-0.1,5.3-0.5,7.9
						c-0.3,2.6-0.8,5.3-1.7,7.9c-0.9-2.6-1.4-5.3-1.7-7.9c-0.3-2.6-0.5-5.3-0.5-7.9c0-2.6,0.2-5.3,0.5-7.9
						C441,315.4,441.5,312.8,442.4,310.2z"/>
				</g>
				<g>
					<path class="st4" d="M426.6,325.9c2.6-0.9,5.3-1.4,7.9-1.7c2.6-0.3,5.3-0.5,7.9-0.5c2.6,0,5.3,0.1,7.9,0.5
						c2.6,0.3,5.3,0.8,7.9,1.7c-2.6,0.9-5.3,1.4-7.9,1.7c-2.6,0.3-5.3,0.5-7.9,0.5c-2.6,0-5.3-0.2-7.9-0.5
						C431.9,327.3,429.2,326.9,426.6,325.9z"/>
				</g>
			</g>
			<g>
				<g>
					<g>
						<path class="st4" d="M58.8,300.8c0.9,2.6,1.4,5.3,1.7,7.9c0.3,2.6,0.5,5.3,0.5,7.9c0,2.6-0.1,5.3-0.5,7.9
							c-0.3,2.6-0.8,5.3-1.7,7.9c-0.9-2.6-1.4-5.3-1.7-7.9c-0.3-2.6-0.5-5.3-0.5-7.9c0-2.6,0.2-5.3,0.5-7.9
							C57.4,306.1,57.9,303.5,58.8,300.8z"/>
					</g>
					<g>
						<path class="st4" d="M43,316.6c2.6-0.9,5.3-1.4,7.9-1.7c2.6-0.3,5.3-0.5,7.9-0.5c2.6,0,5.3,0.1,7.9,0.5
							c2.6,0.3,5.3,0.8,7.9,1.7c-2.6,0.9-5.3,1.4-7.9,1.7c-2.6,0.3-5.3,0.5-7.9,0.5c-2.6,0-5.3-0.2-7.9-0.5
							C48.3,318,45.6,317.5,43,316.6z"/>
					</g>
				</g>
				<g>
					<g>
						<path class="st1" d="M58.8,311.1c0.3,0.9,0.5,1.8,0.6,2.8c0.1,0.9,0.2,1.8,0.2,2.8c0,0.9,0,1.8-0.2,2.8
							c-0.1,0.9-0.3,1.8-0.6,2.8c-0.3-0.9-0.5-1.8-0.6-2.8c-0.1-0.9-0.2-1.8-0.2-2.8c0-0.9,0-1.8,0.2-2.8
							C58.3,313,58.5,312,58.8,311.1z"/>
					</g>
					<g>
						<path class="st1" d="M53.3,316.6c0.9-0.3,1.8-0.5,2.8-0.6c0.9-0.1,1.8-0.2,2.8-0.2c0.9,0,1.8,0,2.8,0.2
							c0.9,0.1,1.8,0.3,2.8,0.6c-0.9,0.3-1.8,0.5-2.8,0.6c-0.9,0.1-1.8,0.2-2.8,0.2c-0.9,0-1.8,0-2.8-0.2
							C55.1,317.1,54.2,316.9,53.3,316.6z"/>
					</g>
				</g>
			</g>
			<g>
				<g>
					<g>
						<path class="st4" d="M407.4,245.2c0.8,2.3,1.2,4.5,1.5,6.8c0.3,2.3,0.4,4.5,0.4,6.8c0,2.3-0.1,4.5-0.4,6.8
							c-0.3,2.3-0.7,4.5-1.5,6.8c-0.8-2.3-1.2-4.5-1.5-6.8c-0.3-2.3-0.4-4.5-0.4-6.8c0-2.3,0.1-4.5,0.4-6.8
							C406.2,249.8,406.6,247.5,407.4,245.2z"/>
					</g>
					<g>
						<path class="st4" d="M393.8,258.8c2.3-0.8,4.5-1.2,6.8-1.5c2.3-0.3,4.5-0.4,6.8-0.4c2.3,0,4.5,0.1,6.8,0.4
							c2.3,0.3,4.5,0.7,6.8,1.5c-2.3,0.8-4.5,1.2-6.8,1.5c-2.3,0.3-4.5,0.4-6.8,0.4c-2.3,0-4.5-0.1-6.8-0.4
							C398.4,260,396.1,259.6,393.8,258.8z"/>
					</g>
				</g>
				<g>
					<g>
						<path class="st1" d="M407.4,254.1c0.3,0.8,0.4,1.6,0.5,2.4c0.1,0.8,0.1,1.6,0.1,2.4c0,0.8,0,1.6-0.1,2.4
							c-0.1,0.8-0.2,1.6-0.5,2.4c-0.3-0.8-0.4-1.6-0.5-2.4c-0.1-0.8-0.1-1.6-0.1-2.4c0-0.8,0-1.6,0.1-2.4
							C407,255.7,407.1,254.9,407.4,254.1z"/>
					</g>
					<g>
						<path class="st1" d="M402.7,258.8c0.8-0.3,1.6-0.4,2.4-0.5c0.8-0.1,1.6-0.1,2.4-0.1c0.8,0,1.6,0,2.4,0.1
							c0.8,0.1,1.6,0.2,2.4,0.5c-0.8,0.3-1.6,0.4-2.4,0.5c-0.8,0.1-1.6,0.1-2.4,0.1c-0.8,0-1.6,0-2.4-0.1
							C404.3,259.2,403.5,259.1,402.7,258.8z"/>
					</g>
				</g>
			</g>
			<g>
				<g>
					<g>
						<path class="st14" d="M403,94.7c0.8,2.3,1.2,4.5,1.5,6.8c0.3,2.3,0.4,4.5,0.4,6.8c0,2.3-0.1,4.5-0.4,6.8
							c-0.3,2.3-0.7,4.5-1.5,6.8c-0.8-2.3-1.2-4.5-1.5-6.8c-0.3-2.3-0.4-4.5-0.4-6.8c0-2.3,0.1-4.5,0.4-6.8
							C401.8,99.2,402.2,97,403,94.7z"/>
					</g>
					<g>
						<path class="st14" d="M389.4,108.3c2.3-0.8,4.5-1.2,6.8-1.5c2.3-0.3,4.5-0.4,6.8-0.4c2.3,0,4.5,0.1,6.8,0.4
							c2.3,0.3,4.5,0.7,6.8,1.5c-2.3,0.8-4.5,1.2-6.8,1.5c-2.3,0.3-4.5,0.4-6.8,0.4c-2.3,0-4.5-0.1-6.8-0.4
							C394,109.5,391.7,109.1,389.4,108.3z"/>
					</g>
				</g>
				<g>
					<g>
						<path class="st1" d="M403,103.6c0.3,0.8,0.4,1.6,0.5,2.4c0.1,0.8,0.1,1.6,0.1,2.4c0,0.8,0,1.6-0.1,2.4
							c-0.1,0.8-0.2,1.6-0.5,2.4c-0.3-0.8-0.4-1.6-0.5-2.4c-0.1-0.8-0.1-1.6-0.1-2.4c0-0.8,0-1.6,0.1-2.4
							C402.6,105.1,402.7,104.4,403,103.6z"/>
					</g>
					<g>
						<path class="st1" d="M398.3,108.3c0.8-0.3,1.6-0.4,2.4-0.5c0.8-0.1,1.6-0.1,2.4-0.1c0.8,0,1.6,0,2.4,0.1
							c0.8,0.1,1.6,0.2,2.4,0.5c-0.8,0.3-1.6,0.4-2.4,0.5c-0.8,0.1-1.6,0.1-2.4,0.1c-0.8,0-1.6,0-2.4-0.1
							C399.9,108.7,399.1,108.6,398.3,108.3z"/>
					</g>
				</g>
			</g>
			<g>
				<g>
					<g>
						<path class="st14" d="M298,429.7c0.8,2.3,1.2,4.5,1.5,6.8c0.3,2.3,0.4,4.5,0.4,6.8c0,2.3-0.1,4.5-0.4,6.8
							c-0.3,2.3-0.7,4.5-1.5,6.8c-0.8-2.3-1.2-4.5-1.5-6.8c-0.3-2.3-0.4-4.5-0.4-6.8c0-2.3,0.1-4.5,0.4-6.8
							C296.8,434.2,297.2,432,298,429.7z"/>
					</g>
					<g>
						<path class="st14" d="M284.4,443.3c2.3-0.8,4.5-1.2,6.8-1.5c2.3-0.3,4.5-0.4,6.8-0.4c2.3,0,4.5,0.1,6.8,0.4
							c2.3,0.3,4.5,0.7,6.8,1.5c-2.3,0.8-4.5,1.2-6.8,1.5c-2.3,0.3-4.5,0.4-6.8,0.4c-2.3,0-4.5-0.1-6.8-0.4
							C289,444.5,286.7,444.1,284.4,443.3z"/>
					</g>
				</g>
				<g>
					<g>
						<path class="st1" d="M298,438.6c0.3,0.8,0.4,1.6,0.5,2.4c0.1,0.8,0.1,1.6,0.1,2.4c0,0.8,0,1.6-0.1,2.4
							c-0.1,0.8-0.2,1.6-0.5,2.4c-0.3-0.8-0.4-1.6-0.5-2.4c-0.1-0.8-0.1-1.6-0.1-2.4c0-0.8,0-1.6,0.1-2.4
							C297.6,440.1,297.7,439.4,298,438.6z"/>
					</g>
					<g>
						<path class="st1" d="M293.3,443.3c0.8-0.3,1.6-0.4,2.4-0.5c0.8-0.1,1.6-0.1,2.4-0.1c0.8,0,1.6,0,2.4,0.1
							c0.8,0.1,1.6,0.2,2.4,0.5c-0.8,0.3-1.6,0.4-2.4,0.5c-0.8,0.1-1.6,0.1-2.4,0.1c-0.8,0-1.6,0-2.4-0.1
							C294.9,443.7,294.1,443.6,293.3,443.3z"/>
					</g>
				</g>
			</g>
			<g>
				<g>
					<g>
						<path class="st14" d="M144.1,76.8c0.4,1.1,0.6,2.2,0.7,3.3c0.1,1.1,0.2,2.2,0.2,3.3c0,1.1-0.1,2.2-0.2,3.3
							c-0.1,1.1-0.3,2.2-0.7,3.3c-0.4-1.1-0.6-2.2-0.7-3.3c-0.1-1.1-0.2-2.2-0.2-3.3c0-1.1,0.1-2.2,0.2-3.3
							C143.5,79.1,143.7,77.9,144.1,76.8z"/>
					</g>
					<g>
						<path class="st14" d="M137.5,83.5c1.1-0.4,2.2-0.6,3.3-0.7c1.1-0.1,2.2-0.2,3.3-0.2c1.1,0,2.2,0.1,3.3,0.2
							c1.1,0.1,2.2,0.3,3.3,0.7c-1.1,0.4-2.2,0.6-3.3,0.7c-1.1,0.1-2.2,0.2-3.3,0.2c-1.1,0-2.2-0.1-3.3-0.2
							C139.7,84,138.6,83.8,137.5,83.5z"/>
					</g>
				</g>
				<g>
					<g>
						<path class="st1" d="M144.1,81.2c0.3,0.8,0.3,1.5,0.3,2.3c0,0.8-0.1,1.5-0.3,2.3c-0.3-0.8-0.3-1.5-0.3-2.3
							C143.8,82.7,143.8,81.9,144.1,81.2z"/>
					</g>
					<g>
						<path class="st1" d="M141.8,83.5c0.8-0.3,1.5-0.3,2.3-0.3c0.8,0,1.5,0.1,2.3,0.3c-0.8,0.3-1.5,0.3-2.3,0.3
							C143.3,83.8,142.6,83.7,141.8,83.5z"/>
					</g>
				</g>
			</g>
		</g>
	</g>
</g>
<g id="Layer_2">
</g>
</svg>
